<mxfile host="app.diagrams.net" modified="2022-11-13T12:06:31.825Z" agent="5.0 (Windows NT 10.0; Win64; x64) AppleWebKit/537.36 (KHTML, like Gecko) Chrome/107.0.0.0 Safari/537.36" etag="OG6KnyF_oKRcH5UqY5-e" version="20.5.3" type="github">
  <diagram id="H7qmBerMb2LOJp1S34gd" name="第 1 页">
    <mxGraphModel dx="782" dy="402" grid="1" gridSize="10" guides="1" tooltips="1" connect="1" arrows="1" fold="1" page="1" pageScale="1" pageWidth="827" pageHeight="1169" math="0" shadow="0">
      <root>
        <mxCell id="0" />
        <mxCell id="1" parent="0" />
        <mxCell id="Cjmf92IvLBcKFHOtcPbE-25" value="" style="rounded=0;whiteSpace=wrap;html=1;shadow=0;dashed=0;strokeColor=inherit;strokeWidth=1;fontFamily=Helvetica;fontSize=17;fontColor=#666666;fillColor=inherit;gradientColor=none;" vertex="1" parent="1">
          <mxGeometry x="70" y="60" width="600" height="310" as="geometry" />
        </mxCell>
        <mxCell id="Cjmf92IvLBcKFHOtcPbE-26" value="加密" style="rounded=1;whiteSpace=wrap;html=1;" vertex="1" parent="1">
          <mxGeometry x="90" y="80" width="80" height="20" as="geometry" />
        </mxCell>
        <mxCell id="Cjmf92IvLBcKFHOtcPbE-28" value="解密" style="rounded=1;whiteSpace=wrap;html=1;" vertex="1" parent="1">
          <mxGeometry x="180" y="80" width="80" height="20" as="geometry" />
        </mxCell>
        <mxCell id="Cjmf92IvLBcKFHOtcPbE-30" value="密钥" style="text;html=1;strokeColor=none;fillColor=none;align=center;verticalAlign=middle;whiteSpace=wrap;rounded=0;" vertex="1" parent="1">
          <mxGeometry x="100" y="130" width="60" height="30" as="geometry" />
        </mxCell>
        <mxCell id="Cjmf92IvLBcKFHOtcPbE-31" value="xxxxxxx" style="rounded=0;whiteSpace=wrap;html=1;" vertex="1" parent="1">
          <mxGeometry x="170" y="135" width="100" height="20" as="geometry" />
        </mxCell>
        <mxCell id="Cjmf92IvLBcKFHOtcPbE-32" value="参数" style="text;html=1;strokeColor=none;fillColor=none;align=center;verticalAlign=middle;whiteSpace=wrap;rounded=0;" vertex="1" parent="1">
          <mxGeometry x="100" y="170" width="60" height="30" as="geometry" />
        </mxCell>
        <mxCell id="Cjmf92IvLBcKFHOtcPbE-33" value="abc,def,cfg" style="rounded=0;whiteSpace=wrap;html=1;" vertex="1" parent="1">
          <mxGeometry x="170" y="175" width="100" height="20" as="geometry" />
        </mxCell>
        <mxCell id="Cjmf92IvLBcKFHOtcPbE-34" value="生成" style="text;html=1;strokeColor=none;fillColor=none;align=center;verticalAlign=middle;whiteSpace=wrap;rounded=0;" vertex="1" parent="1">
          <mxGeometry x="100" y="210" width="60" height="30" as="geometry" />
        </mxCell>
        <mxCell id="Cjmf92IvLBcKFHOtcPbE-38" value="abc" style="text;html=1;strokeColor=none;fillColor=none;align=center;verticalAlign=middle;whiteSpace=wrap;rounded=0;" vertex="1" parent="1">
          <mxGeometry x="170" y="210" width="60" height="30" as="geometry" />
        </mxCell>
        <mxCell id="Cjmf92IvLBcKFHOtcPbE-39" value="bababababa" style="text;html=1;strokeColor=none;fillColor=none;align=center;verticalAlign=middle;whiteSpace=wrap;rounded=0;" vertex="1" parent="1">
          <mxGeometry x="300" y="210" width="60" height="30" as="geometry" />
        </mxCell>
        <mxCell id="Cjmf92IvLBcKFHOtcPbE-40" value="def" style="text;html=1;strokeColor=none;fillColor=none;align=center;verticalAlign=middle;whiteSpace=wrap;rounded=0;" vertex="1" parent="1">
          <mxGeometry x="170" y="240" width="60" height="30" as="geometry" />
        </mxCell>
        <mxCell id="Cjmf92IvLBcKFHOtcPbE-41" value="balababababa" style="text;html=1;strokeColor=none;fillColor=none;align=center;verticalAlign=middle;whiteSpace=wrap;rounded=0;" vertex="1" parent="1">
          <mxGeometry x="290" y="240" width="60" height="30" as="geometry" />
        </mxCell>
      </root>
    </mxGraphModel>
  </diagram>
</mxfile>
